<svg width="847" height="824" fill="none" xmlns="http://www.w3.org/2000/svg"><path d="M646.984-6.216c48.661 35.047 96.796 106.029 124.11 199.246 27.309 93.203 33.789 208.595-.816 332.423-17.283 61.848-49.049 98.708-89.399 117.836-40.371 19.139-89.412 20.564-141.298 11.379-103.78-18.373-218.704-79.148-297.801-124.94-79.058-45.769-137.343-100.174-160.605-158.926-11.627-29.365-14.507-59.819-6.86-90.846 7.65-31.031 25.837-62.666 56.396-94.372 61.15-63.443 165.927-128.939 267.615-169.791 50.841-20.425 100.885-34.68 144.296-39.443 43.428-4.766 80.125-.023 104.362 17.434z" stroke="#70C851" stroke-opacity=".25"/></svg>